# xmcd
#
# Track frame offsets:
#	150
#	11690
#	26612
#	37777
#	48927
#	60345
#	72132
#	85372
#	96657
#	107630
#	120267
#	131857
#	142447
#	154430
#	163652
#	174110
#	184840
#	195235
#	207135
#	218215
#	231655
#	243097
#	253435
#	267010
#	277355
#	288447
#	299725
#	310602
#	322232
#
# Disc length: 4450 seconds
#
# Revision: 9
# Processed by: cddbd v1.5.2PL0 Copyright (c) Steve Scherf et al.
# Submitted via: audiograbber 1.83.01
#
DISCID=bf11601d
DTITLE=Various Artist - Jukebox Hits Of 1963 (Vol. 1 of 3)
DYEAR=1991
DGENRE=Oldies
TTITLE0=The Cascades - Rhythm Of The Rain
TTITLE1=Connie Francis - Al Di La
TTITLE2=Bobby Darin - You're The Reason I'm Living
TTITLE3=Neil Sedaka - Love Makes The World Go Round
TTITLE4=Eydie Gorme - Blame It On The Bossa Nova
TTITLE5=Skeeter Davis - The End Of The World
TTITLE6=The Kingston Trio - Greenback Dollar
TTITLE7=Little Eva - Let's Turkey Trot
TTITLE8=Richard Chamberlain - All I Have To Do Is Dream
TTITLE9=Roy Orbison - In Dreams
TTITLE10=Ruby and The Romantics - Our Day Will Come
TTITLE11=Joe Dee - Baby, You're Driving Me Crazy
TTITLE12=Johnny Cymbal - Mr. Bass Man
TTITLE13=Boots Randolph - Yakety Sax 
TTITLE14=The Chantays - Pipeline
TTITLE15=Nat 'King' Cole - All Over The World
TTITLE16=Dion - Sandy
TTITLE17=Johnny Tillotson - Out Of My Mind
TTITLE18=Bobby Vinton - Over The Mountain, Across The Sea
TTITLE19=Jackie Wilson - Baby Workout
TTITLE20=Paul and Paula - Young Lovers
TTITLE21=The Shirelles - Foolish Little Girl
TTITLE22=The Drifters - On Broadway
TTITLE23=Gene Pitney - Mecca
TTITLE24=Beach Boys - Surfin' USA
TTITLE25=Brenda Lee - Losing You
TTITLE26=Bobby Vee - Charms
TTITLE27=Del Shannon - Two Kinds Of Teardrops
TTITLE28=Patsy Cline - Sweet Dreams
EXTD=
EXTT0=
EXTT1=
EXTT2=
EXTT3=
EXTT4=
EXTT5=
EXTT6=
EXTT7=
EXTT8=
EXTT9=
EXTT10=
EXTT11=
EXTT12=
EXTT13=
EXTT14=
EXTT15=
EXTT16=
EXTT17=
EXTT18=
EXTT19=
EXTT20=
EXTT21=
EXTT22=
EXTT23=
EXTT24=
EXTT25=
EXTT26=
EXTT27=
EXTT28=
PLAYORDER=
